<mxfile host="Electron" agent="Mozilla/5.0 (Windows NT 10.0; Win64; x64) AppleWebKit/537.36 (KHTML, like Gecko) draw.io/24.7.17 Chrome/128.0.6613.36 Electron/32.0.1 Safari/537.36" version="24.7.17">
  <diagram name="Page-1" id="MDaM--AyIgz-ddOBRVa0">
    <mxGraphModel dx="2173" dy="928" grid="1" gridSize="10" guides="1" tooltips="1" connect="1" arrows="1" fold="1" page="1" pageScale="1" pageWidth="850" pageHeight="1100" math="0" shadow="0">
      <root>
        <mxCell id="0" />
        <mxCell id="1" parent="0" />
        <mxCell id="0W4j3Fz4Lh0WJt4VtERG-28" value="&lt;font style=&quot;font-size: 14px;&quot;&gt;User&lt;/font&gt;&lt;div&gt;&lt;br&gt;&lt;/div&gt;&lt;div&gt;userId - String&lt;/div&gt;&lt;div&gt;chatRoomIds - List&amp;lt;String&amp;gt;&lt;/div&gt;&lt;div&gt;isActive - boolean&lt;/div&gt;&lt;div&gt;lastSeen - DateTime&lt;/div&gt;&lt;div&gt;userName - String&lt;/div&gt;&lt;div&gt;name - String&lt;/div&gt;&lt;div&gt;profileImage - String(URL)&lt;/div&gt;" style="rounded=0;whiteSpace=wrap;html=1;" vertex="1" parent="1">
          <mxGeometry x="80" y="100" width="160" height="170" as="geometry" />
        </mxCell>
        <mxCell id="0W4j3Fz4Lh0WJt4VtERG-29" value="&lt;font style=&quot;font-size: 14px;&quot;&gt;ChatMessage&lt;/font&gt;&lt;div&gt;&lt;br&gt;&lt;/div&gt;&lt;div&gt;chatId - String&lt;/div&gt;&lt;div&gt;chatRoomId - String&lt;/div&gt;&lt;div&gt;message - String&lt;/div&gt;&lt;div&gt;senderId - String&lt;/div&gt;&lt;div&gt;receiverId - String&lt;/div&gt;&lt;div&gt;sendDate - DateTime&lt;/div&gt;" style="rounded=0;whiteSpace=wrap;html=1;" vertex="1" parent="1">
          <mxGeometry x="310" y="100" width="140" height="140" as="geometry" />
        </mxCell>
        <mxCell id="0W4j3Fz4Lh0WJt4VtERG-30" value="&lt;font style=&quot;font-size: 14px;&quot;&gt;ChatRoom&lt;/font&gt;&lt;div&gt;&lt;br&gt;&lt;/div&gt;&lt;div&gt;chatRoomId - String&lt;/div&gt;&lt;div&gt;chatRoomType - ENUM(SINGLE, GROUP)&lt;/div&gt;" style="rounded=0;whiteSpace=wrap;html=1;" vertex="1" parent="1">
          <mxGeometry x="500" y="100" width="260" height="140" as="geometry" />
        </mxCell>
        <mxCell id="0W4j3Fz4Lh0WJt4VtERG-31" value="&lt;font style=&quot;font-size: 18px;&quot;&gt;Entity Diagram&lt;/font&gt;" style="text;html=1;align=center;verticalAlign=middle;whiteSpace=wrap;rounded=0;" vertex="1" parent="1">
          <mxGeometry x="320" y="40" width="160" height="30" as="geometry" />
        </mxCell>
        <mxCell id="0W4j3Fz4Lh0WJt4VtERG-32" value="&lt;span style=&quot;font-size: 18px;&quot;&gt;Messaging Flow Diagram&lt;/span&gt;" style="text;html=1;align=center;verticalAlign=middle;whiteSpace=wrap;rounded=0;" vertex="1" parent="1">
          <mxGeometry x="240" y="320" width="340" height="30" as="geometry" />
        </mxCell>
        <mxCell id="0W4j3Fz4Lh0WJt4VtERG-33" value="client1" style="rounded=0;whiteSpace=wrap;html=1;" vertex="1" parent="1">
          <mxGeometry x="-330" y="460" width="120" height="280" as="geometry" />
        </mxCell>
        <mxCell id="0W4j3Fz4Lh0WJt4VtERG-57" style="edgeStyle=orthogonalEdgeStyle;rounded=0;orthogonalLoop=1;jettySize=auto;html=1;entryX=0;entryY=0.5;entryDx=0;entryDy=0;entryPerimeter=0;" edge="1" parent="1" source="0W4j3Fz4Lh0WJt4VtERG-36" target="0W4j3Fz4Lh0WJt4VtERG-55">
          <mxGeometry relative="1" as="geometry" />
        </mxCell>
        <mxCell id="0W4j3Fz4Lh0WJt4VtERG-36" value="ChatApplication" style="rounded=0;whiteSpace=wrap;html=1;" vertex="1" parent="1">
          <mxGeometry x="125" y="740" width="180" height="130" as="geometry" />
        </mxCell>
        <mxCell id="0W4j3Fz4Lh0WJt4VtERG-42" value="ChatApplication" style="text;html=1;align=center;verticalAlign=middle;whiteSpace=wrap;rounded=0;" vertex="1" parent="1">
          <mxGeometry x="380" y="360" width="60" height="30" as="geometry" />
        </mxCell>
        <mxCell id="0W4j3Fz4Lh0WJt4VtERG-43" value="" style="endArrow=classic;html=1;rounded=0;exitX=1;exitY=0.25;exitDx=0;exitDy=0;entryX=0;entryY=0.5;entryDx=0;entryDy=0;" edge="1" parent="1" source="0W4j3Fz4Lh0WJt4VtERG-33" target="0W4j3Fz4Lh0WJt4VtERG-46">
          <mxGeometry relative="1" as="geometry">
            <mxPoint x="130" y="501" as="sourcePoint" />
            <mxPoint x="230" y="500" as="targetPoint" />
          </mxGeometry>
        </mxCell>
        <mxCell id="0W4j3Fz4Lh0WJt4VtERG-44" value="&lt;font style=&quot;font-size: 14px;&quot;&gt;&amp;nbsp;/app/chat&amp;nbsp;&lt;/font&gt;&lt;div&gt;&lt;font size=&quot;3&quot;&gt;using stomp client&amp;nbsp;&lt;/font&gt;&lt;/div&gt;&lt;div&gt;&lt;font size=&quot;3&quot;&gt;with senderId, recipientId, chatRoomId&lt;/font&gt;&lt;/div&gt;" style="edgeLabel;resizable=0;html=1;;align=center;verticalAlign=middle;" connectable="0" vertex="1" parent="0W4j3Fz4Lh0WJt4VtERG-43">
          <mxGeometry relative="1" as="geometry" />
        </mxCell>
        <mxCell id="0W4j3Fz4Lh0WJt4VtERG-46" value="Global Messaging Queue - /app/chat&amp;nbsp;&lt;div&gt;recieves all messeages sent by any client for processing&lt;/div&gt;" style="rounded=0;whiteSpace=wrap;html=1;" vertex="1" parent="1">
          <mxGeometry x="90" y="400" width="250" height="60" as="geometry" />
        </mxCell>
        <mxCell id="0W4j3Fz4Lh0WJt4VtERG-47" value="" style="endArrow=classic;html=1;rounded=0;exitX=-0.007;exitY=0.849;exitDx=0;exitDy=0;entryX=1.012;entryY=0.819;entryDx=0;entryDy=0;exitPerimeter=0;entryPerimeter=0;" edge="1" parent="1" source="0W4j3Fz4Lh0WJt4VtERG-36" target="0W4j3Fz4Lh0WJt4VtERG-33">
          <mxGeometry relative="1" as="geometry">
            <mxPoint x="200" y="630" as="sourcePoint" />
            <mxPoint x="110" y="640" as="targetPoint" />
            <Array as="points" />
          </mxGeometry>
        </mxCell>
        <mxCell id="0W4j3Fz4Lh0WJt4VtERG-48" value="API - /message/{chatRoomId}l&lt;div&gt;to recive messges from a particular chatRoom&lt;/div&gt;" style="edgeLabel;resizable=0;html=1;;align=center;verticalAlign=middle;" connectable="0" vertex="1" parent="0W4j3Fz4Lh0WJt4VtERG-47">
          <mxGeometry relative="1" as="geometry" />
        </mxCell>
        <mxCell id="0W4j3Fz4Lh0WJt4VtERG-50" value="Individual Recieving Queue - /user/message/{userId}" style="rounded=0;whiteSpace=wrap;html=1;" vertex="1" parent="1">
          <mxGeometry x="420" y="400" width="235" height="60" as="geometry" />
        </mxCell>
        <mxCell id="0W4j3Fz4Lh0WJt4VtERG-54" value="MongoDB" style="shape=cylinder3;whiteSpace=wrap;html=1;boundedLbl=1;backgroundOutline=1;size=15;" vertex="1" parent="1">
          <mxGeometry x="610" y="720" width="180" height="120" as="geometry" />
        </mxCell>
        <mxCell id="0W4j3Fz4Lh0WJt4VtERG-55" value="&lt;div&gt;S3&lt;/div&gt;Store Profile Images" style="shape=cylinder3;whiteSpace=wrap;html=1;boundedLbl=1;backgroundOutline=1;size=15;" vertex="1" parent="1">
          <mxGeometry x="610" y="890" width="170" height="120" as="geometry" />
        </mxCell>
        <mxCell id="0W4j3Fz4Lh0WJt4VtERG-60" value="Individual Recieving Queue - /user/message/{userId}" style="rounded=0;whiteSpace=wrap;html=1;" vertex="1" parent="1">
          <mxGeometry x="430" y="410" width="235" height="60" as="geometry" />
        </mxCell>
        <mxCell id="0W4j3Fz4Lh0WJt4VtERG-61" value="Individual Recieving Queue - /user/message/{userId}" style="rounded=0;whiteSpace=wrap;html=1;" vertex="1" parent="1">
          <mxGeometry x="440" y="420" width="235" height="60" as="geometry" />
        </mxCell>
        <mxCell id="0W4j3Fz4Lh0WJt4VtERG-62" value="Individual Recieving Queue - /user/message/{userId}" style="rounded=0;whiteSpace=wrap;html=1;" vertex="1" parent="1">
          <mxGeometry x="450" y="430" width="235" height="60" as="geometry" />
        </mxCell>
        <mxCell id="0W4j3Fz4Lh0WJt4VtERG-63" style="edgeStyle=orthogonalEdgeStyle;rounded=0;orthogonalLoop=1;jettySize=auto;html=1;entryX=0.001;entryY=0.413;entryDx=0;entryDy=0;entryPerimeter=0;" edge="1" parent="1" source="0W4j3Fz4Lh0WJt4VtERG-36" target="0W4j3Fz4Lh0WJt4VtERG-54">
          <mxGeometry relative="1" as="geometry" />
        </mxCell>
        <mxCell id="0W4j3Fz4Lh0WJt4VtERG-65" value="" style="endArrow=classic;html=1;rounded=0;exitX=0;exitY=1;exitDx=0;exitDy=0;entryX=1;entryY=0.5;entryDx=0;entryDy=0;" edge="1" parent="1" source="0W4j3Fz4Lh0WJt4VtERG-62" target="0W4j3Fz4Lh0WJt4VtERG-33">
          <mxGeometry relative="1" as="geometry">
            <mxPoint x="500" y="600" as="sourcePoint" />
            <mxPoint x="-20" y="640" as="targetPoint" />
          </mxGeometry>
        </mxCell>
        <mxCell id="0W4j3Fz4Lh0WJt4VtERG-66" value="&lt;span style=&quot;text-wrap: wrap; background-color: rgb(27, 29, 30);&quot;&gt;&lt;font style=&quot;font-size: 14px;&quot;&gt;Send recieved message to client&lt;/font&gt;&lt;/span&gt;&lt;div style=&quot;text-wrap: wrap; background-color: rgb(27, 29, 30);&quot;&gt;&lt;font size=&quot;3&quot;&gt;clientSubscribesTo queu using STOMP&lt;/font&gt;&lt;/div&gt;" style="edgeLabel;resizable=0;html=1;;align=center;verticalAlign=middle;" connectable="0" vertex="1" parent="0W4j3Fz4Lh0WJt4VtERG-65">
          <mxGeometry relative="1" as="geometry">
            <mxPoint x="240" y="-15" as="offset" />
          </mxGeometry>
        </mxCell>
        <mxCell id="0W4j3Fz4Lh0WJt4VtERG-68" value="" style="endArrow=classic;html=1;rounded=0;entryX=0;entryY=0.5;entryDx=0;entryDy=0;exitX=1;exitY=0.5;exitDx=0;exitDy=0;" edge="1" parent="1" source="0W4j3Fz4Lh0WJt4VtERG-46" target="0W4j3Fz4Lh0WJt4VtERG-50">
          <mxGeometry width="50" height="50" relative="1" as="geometry">
            <mxPoint x="310" y="630" as="sourcePoint" />
            <mxPoint x="360" y="580" as="targetPoint" />
          </mxGeometry>
        </mxCell>
        <mxCell id="0W4j3Fz4Lh0WJt4VtERG-69" value="" style="endArrow=classic;html=1;rounded=0;entryX=0.5;entryY=0;entryDx=0;entryDy=0;exitX=0.5;exitY=1;exitDx=0;exitDy=0;" edge="1" parent="1" source="0W4j3Fz4Lh0WJt4VtERG-46" target="0W4j3Fz4Lh0WJt4VtERG-36">
          <mxGeometry relative="1" as="geometry">
            <mxPoint x="280" y="600" as="sourcePoint" />
            <mxPoint x="380" y="600" as="targetPoint" />
          </mxGeometry>
        </mxCell>
        <mxCell id="0W4j3Fz4Lh0WJt4VtERG-70" value="&lt;font style=&quot;font-size: 14px;&quot;&gt;also persist recieved messages&lt;/font&gt;&lt;div&gt;&lt;font size=&quot;3&quot;&gt;to database&lt;/font&gt;&lt;/div&gt;" style="edgeLabel;resizable=0;html=1;;align=center;verticalAlign=middle;" connectable="0" vertex="1" parent="0W4j3Fz4Lh0WJt4VtERG-69">
          <mxGeometry relative="1" as="geometry">
            <mxPoint y="50" as="offset" />
          </mxGeometry>
        </mxCell>
      </root>
    </mxGraphModel>
  </diagram>
</mxfile>
